<?xml version="1.0" standalone="no"?>
<!DOCTYPE svg PUBLIC "-//W3C//DTD SVG 20010904//EN"
 "http://www.w3.org/TR/2001/REC-SVG-20010904/DTD/svg10.dtd">
<svg version="1.0" xmlns="http://www.w3.org/2000/svg"
 width="447.000000pt" height="454.000000pt" viewBox="0 0 447.000000 454.000000"
 preserveAspectRatio="xMidYMid meet">

<g transform="translate(0.000000,454.000000) scale(0.100000,-0.100000)"
fill="#000000" stroke="none">
<path d="M350 2055 l0 -1495 1930 0 1930 0 0 1495 0 1495 -1930 0 -1930 0 0
-1495z m3810 0 l0 -1445 -1880 0 -1880 0 0 1445 0 1445 1880 0 1880 0 0 -1445z"/>
<path d="M3265 2271 c-73 -18 -108 -62 -109 -141 -1 -61 22 -94 97 -138 123
-74 147 -124 88 -183 -24 -23 -38 -29 -74 -29 -78 0 -137 69 -137 160 0 50
-16 52 -29 3 -33 -125 -43 -175 -36 -181 4 -4 10 -2 12 4 2 6 10 20 17 30 13
17 16 17 55 -11 117 -81 271 -12 271 122 0 53 -30 89 -113 139 -91 54 -107 71
-107 114 0 45 32 78 83 87 33 5 41 1 77 -34 28 -29 41 -52 46 -82 4 -23 10
-44 14 -46 9 -6 54 174 46 183 -3 2 -14 -6 -24 -18 l-19 -23 -53 26 c-57 29
-59 29 -105 18z"/>
<path d="M740 2250 c0 -5 13 -10 29 -10 40 0 43 -9 26 -66 -12 -43 -31 -112
-80 -297 -15 -60 -40 -87 -77 -87 -19 0 -28 -4 -25 -12 5 -17 179 -18 184 -1
3 7 -8 13 -24 15 -21 2 -29 9 -31 27 -4 23 74 329 87 343 6 6 42 -91 135 -354
13 -39 25 -58 36 -58 17 0 18 4 110 347 15 56 33 109 40 117 6 9 27 18 46 22
64 12 34 24 -61 24 -93 0 -125 -12 -65 -23 24 -5 30 -12 30 -32 0 -19 -49
-211 -83 -329 -2 -5 -25 51 -52 125 -26 74 -58 161 -70 194 l-22 60 -66 3
c-42 2 -67 -1 -67 -8z"/>
<path d="M3540 2250 c0 -5 14 -10 30 -10 20 0 30 -5 30 -15 0 -8 -27 -112 -60
-232 -35 -129 -56 -221 -50 -227 20 -20 40 7 61 79 22 75 23 76 53 73 l31 -3
-3 -63 c-2 -39 1 -69 8 -78 17 -19 64 -18 82 4 16 17 58 96 58 107 0 19 -22
-6 -42 -45 -13 -25 -31 -47 -41 -48 -17 -3 -18 2 -11 56 6 53 4 62 -13 72 -19
12 -19 13 4 59 12 25 23 52 23 59 0 6 6 12 13 12 7 0 13 -12 12 -27 0 -23 4
-28 25 -28 20 0 26 6 28 28 4 37 -13 57 -49 57 -26 0 -33 -7 -61 -67 -28 -57
-37 -69 -60 -71 -16 -2 -28 -1 -28 2 0 4 18 71 40 151 22 80 40 149 40 155 0
6 -27 10 -60 10 -33 0 -60 -4 -60 -10z"/>
<path d="M1342 2238 c-25 -25 -6 -68 30 -68 9 0 22 9 28 19 13 25 13 27 -6 45
-19 19 -36 20 -52 4z"/>
<path d="M1263 2058 c-30 -33 -65 -106 -53 -113 5 -3 17 14 28 37 10 24 29 51
40 62 20 17 22 17 28 2 8 -20 7 -21 -46 -221 -46 -177 -51 -190 -81 -206 -31
-16 -48 4 -25 30 22 24 15 51 -12 51 -49 0 -56 -74 -10 -100 25 -14 31 -13 63
5 52 27 78 80 124 245 55 195 54 230 -3 230 -21 0 -40 -8 -53 -22z"/>
<path d="M1470 2058 c-21 -22 -50 -81 -50 -99 0 -22 17 -4 38 40 12 27 30 52
39 55 34 14 34 -13 -1 -98 -37 -89 -47 -161 -24 -184 33 -33 97 1 136 73 l17
30 3 -45 c4 -52 16 -70 46 -70 32 0 96 80 96 120 0 22 -17 8 -33 -29 -9 -21
-26 -46 -37 -56 -35 -32 -34 5 4 145 20 72 36 133 36 135 0 3 -11 5 -24 5 -19
0 -26 -9 -44 -60 -38 -113 -122 -240 -158 -240 -22 0 -17 35 15 109 39 91 45
126 31 162 -16 37 -59 40 -90 7z"/>
<path d="M1862 2053 c-21 -30 -52 -88 -52 -98 0 -3 4 -5 9 -5 5 0 19 20 31 45
26 55 60 79 60 43 0 -13 -13 -72 -30 -133 -36 -135 -37 -147 -8 -143 16 2 26
16 40 58 25 76 97 199 131 224 49 36 52 9 13 -92 -37 -94 -45 -159 -24 -180
18 -18 63 -15 80 6 15 17 58 96 58 107 0 16 -22 1 -30 -21 -25 -65 -80 -111
-80 -66 0 10 16 56 35 102 51 124 45 180 -19 180 -35 0 -54 -16 -100 -85 l-27
-40 7 41 c8 55 -8 84 -46 84 -20 0 -34 -8 -48 -27z"/>
<path d="M2250 2038 c-16 -22 -30 -44 -30 -49 0 -4 -3 -14 -6 -23 -13 -35 14
-13 31 24 23 52 51 78 67 62 9 -9 3 -33 -25 -102 -52 -125 -48 -190 11 -190
38 0 67 23 98 75 14 25 27 45 29 45 2 0 1 -17 -2 -39 -9 -64 20 -94 71 -75 17
7 49 53 65 97 18 46 -7 31 -33 -22 -14 -27 -32 -51 -41 -54 -24 -10 -19 42 15
163 36 126 36 132 8 128 -17 -2 -28 -20 -53 -83 -54 -139 -128 -236 -158 -206
-8 8 -2 33 22 92 55 135 52 199 -9 199 -23 0 -36 -9 -60 -42z"/>
<path d="M3000 1970 c0 -6 -33 -10 -80 -10 -74 0 -81 -2 -96 -25 -9 -14 -13
-29 -9 -33 4 -4 10 -1 12 6 3 8 29 12 83 12 70 0 81 2 94 22 18 26 20 38 6 38
-5 0 -10 -4 -10 -10z"/>
</g>
</svg>
